<svg id="Camada_1" data-name="Camada 1" xmlns="http://www.w3.org/2000/svg" viewBox="0 0 198.66 198.65"><defs><style>.cls-1{opacity:0.5;}.cls-2{fill:#514a9b;}</style></defs><title>um amor para recordar-legendafilmes.com.br</title><g class="cls-1"><path class="cls-2" d="M258.62,131.11H285.7q37.42,6.15,53.33,21.64a245.78,245.78,0,0,0,21.64,16.2q13.12,12.42,13.12,17.73l-1.53.84q-7-10.6-16.19-14.66-3.07-5.16-18.57-17-30.58-21.63-67.29-21.64v-0.84q-31,4.46-31,8.52-20,4.75-40.9,30.15-20.11,35.88-20.11,47.89h-1.54v-9.21q5.58-27.22,27.08-51.09Q238,132.09,258.62,131.11Zm-27.78,0h8.38v1.54q-11.6,2.23-30.85,17.73-2.93,0-7.68,10.05-16.61,16.05-22.47,30.85h-1.54v-4.6q0.84-10.06,26.24-36.3l0.84-1.54-1.53-.84q-18.15,13.4-24,27.08h-1.54v-7l7.68-9.21q12.28-13.12,23.17-13.12,9.35-9.36,14.8-9.35Q222.32,135.57,230.84,131.11Zm-43.27,0h3.77v0.7q-13,16.06-13.82,16.19h-0.84V143.4Q177.51,141,187.56,131.11Zm-9.35,0h3.07v0.7q0,1.12-3.77,3.07l-0.84-1.53v-0.7A1.54,1.54,0,0,1,178.21,131.11Zm85,6.84a116.24,116.24,0,0,1,12.43,1.54,44.08,44.08,0,0,1,7-.7q36.29,6.56,36.3,11.59,7.39,1.26,30.85,20.8,17,29.18,17,40.21-1.4,6.28-3.07,6.28l2.38,10.75q-2.37,3.91-2.37,6.15,0.7,4.19.7,4.75-4,4.33-6.14,22.33-3.63,6-11.58,33.23-10.76,32.24-14,34.06c-1,0-1.54-.79-1.54-2.37q27.08-77.76,27.08-92V221.44q-3.77-9.21-4.6-22.34-1.54-.56-3.91-7.82h-0.7v1.54l2.23,12.42h-0.69q-2.8-1.12-8.52-20.1,0-7.82-24.71-24.71-32.8-10.89-44.11-10.89H271q-25.69,0-45.65,17h3.91q20.81-9.91,28.48-12.28a42,42,0,0,1,4.75-.84q50.4,4.61,56.4,13.12,13.82,5,31.69,48,1.95,0,3.91,17.73a132,132,0,0,0-4.74,23.17q-14.66,49.28-23.18,73.43h-3.07V328.1q8.51-22.05,14-51,3.07-5.17,10-36.3v-17q0-14.25-18.57-44.81-27.23-20.94-56.4-20.94h-5.45q-14.24,0-44.81,15.5-20.1,17.17-20.1,25.55l-18.57,58.77q-5.3,6.84-6.14,6.84l-0.84-1.54v-2.23q0-1.12,7-14Q195.94,195,209.2,178.16A168.28,168.28,0,0,0,230,158.89q19-12.42,31.69-12.42h5.44a117.07,117.07,0,0,1,53.33,12.42q2.1,0,17,13.12,2.09,0,18.57,24,3.77,17.73,6.14,17.73l0.7-3.91v-1.54q-2.8-12.15-16.19-32.39-6.29-11.31-21.64-18.57-21.64-14-50.26-14,0-.7-6.14-0.69Q242.43,142.7,220,162q0,1.25-13.12,12.43-11.17,12-20.11,43.27-4.61,23.18-8.51,31.69h-1.54v-4.75q17-68.68,24-68.68,33.08-34.76,49.42-34.76A42.26,42.26,0,0,1,263.23,138Zm-1.53,23.18V162q-3.07,3.63-23.17,11.58-35.6,21.5-35.6,65.75,0,12.28-7.68,27.78-4.61,10.89-17.73,21.64l-0.84-1.54v-0.84q19.26-22.06,24-47-0.83-7.82-.83-11.59,0-29.74,24-50.26Q253.18,161.12,261.69,161.13Zm14,1.67q26.52,0,44,13.82,11,6.42,21.64,35.6,2.38,7.12,2.37,10.75a28.59,28.59,0,0,0-1.54,7q0,5.44.7,17-3.21,0-4.61,17-4.61,3.77-7,26.24-8.52,32.95-13.83,38.67H315V328.1q13.12-36.86,13.12-45.51-8.52,10.89-11.59,29.32,0,6.57-6.14,15.5v1.53h-4.6V327.4q5-5.16,7-17.73v-0.84h-0.84l-10.89,20.1h-2.23q4.61-9.91,4.6-10.89h-0.7q-9.36,7.54-9.36,10.89h-3.91V327.4q7-9.35,21.64-21.64l11.59-24a34.76,34.76,0,0,0,9.35-20.11q5.44-10.75,5.45-33.23-2.65-.41-10.89-21.64Q312.08,184,302.74,181.23a117,117,0,0,0-44.12-8.38q-31,13.12-38.67,30-7,12.85-7,34.9l-7.68,28.62q-8.24,16.48-27.78,33.23h-0.84V295.7q30.85-27.92,30.85-61.84,1.81-22.19,6.28-26.25,0.41-6.84,8.51-15.49,11.17-13,30.15-21.64,6,0,15.35-7.68h7.82Zm-17.87,14.66c1,0,1.54.23,1.54,0.7l7.82-.7h5.45q9.08,0,23.18,4.61,21.22,8.8,32.39,37.83,3.91,12.57,3.91,19.41v4.61q0,28.89-48.72,85h-1.54a1.35,1.35,0,0,1-1.53-1.53q30.85-36.72,32.53-46.35,6.29-8,14.66-34.06v-2.38a5.86,5.86,0,0,0-.84-3.07q0.83-1.54,1.53-7-8.93-33.79-23.87-42.44-8.38-7.26-30.15-10.89H265.6q-11.31,0-25.55,11.59-3.63.56-7,8.51-7.68,6.84-12.28,31.69,0,42.29-43.28,75.11l-0.84-1.68v-1.53q23.59-18.71,28.62-33.23,12.28-18,12.28-47.05,0-9.07,9.35-21.77,0-7.12,20.8-20.8A29.69,29.69,0,0,1,257.78,177.46Zm12.43,7q18.71,2.51,23.17,6.84,7,1.4,19.41,14.8,9.91,20,9.91,33.92l0.84,9.35q-3.35,0-7,15.36-1.67,0-3.77,9.35-7,9.36-14.8,27.09-1.67,0-22.33,27.78h-3.91V328.1q24.85-31,37.13-58.63,3.07-5.87,8.51-30.15v-5.45q0-13.82-10-27.08-1.12,0-10-8.51A48.87,48.87,0,0,0,267.83,189q-12,0-21.63,9.21-7.54,0-15.36,29.45-4.75,33.79-10,45.51-21.64,31.27-44.12,44.11v-3.07q34.06-30.29,34.06-34.76,10.05-13,10.05-24.85,2.23-3.77,5.3-26.25l-0.7-4.6q7.26-23.32,27.08-36.3Q263.36,184.44,270.21,184.44Zm-6.14,8.38h2.23q16.75,0,35.6,14,10,15.49,10,20.94v0.7q0,26.67-16.19,56.4l-10.89,20.11a125.51,125.51,0,0,1-19.27,24h-1.54a1.36,1.36,0,0,1-1.54-1.53q26.39-28.06,32.39-53.33Q307.34,246,307.34,230v-4.6q-9.77-20.1-17-20.1-4.19-3.91-16.19-6.14c0-.74-0.8-1.54-2.37-2.38q-14,0-21.64,8.52-14.66,11-14.66,43.28-4.33,27.36-13.12,37.13-36.16,38.67-44.81,41.74l-0.84-1.54V325a71.73,71.73,0,0,1,17.73-14.66L220,282.58A75.82,75.82,0,0,0,227.63,264h1.68q5.31-52.63,10.75-52.63Q246.19,198.54,264.06,192.82Zm-69.66,35.6h0.83q2.24,0.56,2.23,6.15v1.68q0,8.37-12.28,33.22-6.57,8.52-7.68,8.51h-0.84v-4.74Q194.4,253.69,194.4,228.42Zm17.87-97.3h7v0.7q-1.82,2.65-17,9.35a147.57,147.57,0,0,0-24,18.43h-0.7v-3.77q2.1-7.26,30-21.64C207.53,133.81,209.1,132.79,212.27,131.11Zm56.4,68.69q3.07,1.26,3.07,2.37Q247,213.48,247,222.28q-2.51,0-6.14,40.2a74.61,74.61,0,0,0-5.45,17.73l-16.19,20.1L189.8,328.93h-3.91a1.35,1.35,0,0,1-1.53-1.53q7.11-2.93,23.17-21.64,13.12-9.49,19.4-20.94Q237.4,267.93,238.52,254a5.58,5.58,0,0,1-.84-2.37q4.75-35.74,11.59-39.37Q260.43,199.8,268.68,199.8Zm-68.83-68.69h3.07v0.7q-8.24,8.52-11.58,8.52L189.8,138Q195.38,131.12,199.85,131.11Zm79.57,73.44q23.31,9.63,23.32,25.4,0,18.85-13.27,43.28,0,14.38-23.18,45.65l-13.12,10h-3.07V328.1q27.5-22.34,33.22-44a46.72,46.72,0,0,0,.84-4.61q-3.22,2.1-24.85,36.3-6.42,4.89-20.1,12.29a0.69,0.69,0,0,1-.7.83h-0.84a1.35,1.35,0,0,1-1.53-1.53q1.81-3.91,7.82-8.52l3.07,1.54q21.78-18.71,30.86-40.91,7-3.2,10.89-14L298,231.49q-3.77-16.89-10-16.89,0-2.65-10.75-5.45-11.17,0-22.47,13.13-3.77,6.14-7,46.34-7,25.83-24.71,37.84-14.24,13-19.27,22.48h-5.44a1.36,1.36,0,0,1-1.54-1.53q13.26-10,19.26-20.11,14.24-8.93,25.54-30.15a444.54,444.54,0,0,0,7-49.42q8.38-18.56,17-18.57Q275.51,204.55,279.42,204.55Zm-0.7,9.21q9.07,0,14,14a8,8,0,0,1,.7,3.77q-4.32,17.87-7.68,22.48,0,15.78-18.57,37.83a79.13,79.13,0,0,1-16.19,19.4v-1.54a134.44,134.44,0,0,0,8.37-35.6q2.37-5.58,2.38-21.64V241.54q1.25-20.1,13.12-20.1,5.3,0,10.89,7v3.91a1.36,1.36,0,0,1-1.53,1.53q-1.12,0-4.75-7.68a46.26,46.26,0,0,1-4.61-.84q-9.21,0-9.21,19.26c-0.55,0-.84,2.61-0.84,7.82v20.8l-1.54,2.37v6.14q0,2.51-2.23,8.51l1.53,0.84h0.7q17-25.12,17-28.62A68.79,68.79,0,0,0,281,254a6.37,6.37,0,0,0-.7-2.37,125.15,125.15,0,0,1,8.52-19.26q0-3.49.7-4.61-7.54-10.05-14.66-10.05-13.12,0-16.2,17.73-5.72,78-16.19,78-8,11.6-13.12,15.5h-3.21V328.1q22.48-25.13,22.48-38.53v-0.84h-0.84q-16.47,33.09-23.17,34.76,0,0.56-6.14,5.45H213v-2.37q13.54-5,20.1-16.9,3.21-14.24,16.2-26.38,5.44-28.62,5.45-43.27v-7q0-8.38,12.42-17.73A79.67,79.67,0,0,1,278.73,213.76ZM230,304.92v1.53Q221.07,322,213,322,213,319.44,230,304.92Zm35.6-136,3.77,1.53,10.89-.84q17,2,38.67,16.33,14.66,20.52,14.66,30.85Q338.06,223,339,223v-0.7q0-10.06-14-34.77a82,82,0,0,1-11.59-10.89q-21.93-10.05-35.6-10.05Q265.6,166.57,265.6,168.95Zm10.75,59.47q1.12,0,3.91,3.91a1.36,1.36,0,0,1-1.54,1.53,1.36,1.36,0,0,0-1.54-1.53h-2.37q-2,10.75-3.77,10.75,0,11,4.61,17a15.69,15.69,0,0,1-5.45,12.43h-0.84a174.73,174.73,0,0,1-2.24-19.4q1.54-2.93,1.54-8.52v-0.69a5.39,5.39,0,0,0-.84-3.07Q267.83,235.26,276.35,228.42Zm35.6-97.3h7.68q10.33,1.82,54.86,40.07v6.28h-0.7q-15.36-18.15-26.24-21.64a80.56,80.56,0,0,0-35.6-23.17v-1.54Zm7,115.88v2.37h0.7a5.56,5.56,0,0,1,.84-2.37h-1.53Zm13.12-115.88h5.45q14,12.29,27.78,23.18v-3.91a70.11,70.11,0,0,0-20.8-17.73v-1.54h3.07q7,0,26.94,26.24V162A1.35,1.35,0,0,1,373,163.5q-28.48-20.53-40.9-31.69v-0.7Zm16.19,167.67h1.54v0.84q0,14.94-8.52,29.32h-1.54c-1,0-1.53-.79-1.53-2.37Q346.71,306,348.25,298.78Zm20.1-57.23h1.54l0.84,7.81V254q0,2.65-10.89,28.62-2.65,32.67-8.52,41.74,0,4.61-1.53,4.6h-1.54a1.35,1.35,0,0,1-1.53-1.53v-0.83q8.51-19.55,8.51-44.82,0-.84,7-18.57Q362.21,261.23,368.35,241.54Zm-1.53,31.69h2.37l0.7,3.91q-1.12,9.5-3.07,10l0.84,3.07a71.57,71.57,0,0,1-10.89,38.67h-1.54v-3.07q5.59-11,8.52-41Q363.74,282.86,366.82,273.23ZM358.3,131.11h4.61q6.84,9.22,10.05,9.22a9,9,0,0,1,1.53,4.61v3.91h-0.7l-15.5-17v-0.7Zm0,47.89h0.84q15.36,11,15.36,25.55v37H373q-2.24-6.42-2.24-8.52a61.77,61.77,0,0,1,1.54-9.21q-1.54-5.45-2.37-5.45a84.3,84.3,0,0,0,1.53-14.66q-5.31-14.8-10.75-18.56,0-1.82-2.37-4.61V179ZM373,261.64h1.53v38.67q0,14.53-9.21,28.62h-3.07V328.1q10-17.31,10-42.44V267.09Zm-1.54-131.36q3.63,1.54,3.91,3.07v2.38H373c-0.75,0-1.77-1-3.07-3.07v-0.84A1.54,1.54,0,0,1,371.42,130.28Zm3.07,193.21h0.84v3.08q0,1.11-2.37,2.37a1.36,1.36,0,0,1-1.54-1.53Q373.51,323.63,374.49,323.48Z" transform="translate(-176.67 -130.28)"/></g><path class="cls-2" d="M270,135.31q6.35,1.66,6.35,8.1v0.28a8.43,8.43,0,0,1-10.5,8.1,52.31,52.31,0,0,0-13.08-1.66,52.19,52.19,0,0,0-52.12,52.21,52,52,0,0,0,52.12,52.12,55.15,55.15,0,0,0,13.08-1.57,8,8,0,0,1,7.18,1.47,7.88,7.88,0,0,1,3.31,6.63v0.18q0,6.54-6.35,8.2a70.7,70.7,0,0,1-17.22,2.12q-28.64,0-48.9-20.26t-20.26-48.9q0-28.64,20.26-48.9t48.9-20.26A70.79,70.79,0,0,1,270,135.31Z" transform="translate(-176.67 -130.28)"/><path class="cls-2" d="M303,190.62q28.64,0,48.9,20.26t20.26,48.9q0,28.64-20.26,48.9T303,328.93H289.12a23.26,23.26,0,0,1-23.21-23.21v-91.9a23.11,23.11,0,0,1,23.21-23.21H303ZM283,305.72a6,6,0,0,0,6.17,6.17H303a52.16,52.16,0,0,0,36.93-89A50.32,50.32,0,0,0,303,207.56H289.12a6,6,0,0,0-4.42,1.84,6.19,6.19,0,0,0-1.75,4.42v91.9Z" transform="translate(-176.67 -130.28)"/></svg>