<svg id="Layer_1" data-name="Layer 1" xmlns="http://www.w3.org/2000/svg" viewBox="0 0 616.18 211.61"><defs><style>.cls-1{fill:#4856a6;}.cls-2{opacity:0.5;}</style></defs><title>comunica</title><path class="cls-1" d="M247.42,391.27a2.4,2.4,0,0,1,2,2.54v0.09a2.51,2.51,0,0,1-1,2.08,2.49,2.49,0,0,1-2.25.46,16.39,16.39,0,0,0-4.09-.52,16.33,16.33,0,1,0,0,32.65,17.23,17.23,0,0,0,4.09-.49,2.49,2.49,0,0,1,2.25.46,2.46,2.46,0,0,1,1,2.08v0.06a2.41,2.41,0,0,1-2,2.57,22.13,22.13,0,0,1-5.39.66,21.64,21.64,0,0,1,0-43.29A22.13,22.13,0,0,1,247.42,391.27Z" transform="translate(0 -328.61)"/><path class="cls-1" d="M265.94,402.42A15.74,15.74,0,1,1,254.82,407,15.16,15.16,0,0,1,265.94,402.42Zm0,5.39a10.43,10.43,0,1,0,7.35,3.06A10.06,10.06,0,0,0,265.94,407.81Z" transform="translate(0 -328.61)"/><path class="cls-1" d="M289,431.27a2.46,2.46,0,0,1-.78,1.84,2.52,2.52,0,0,1-1.84.78h-0.09a2.52,2.52,0,0,1-1.84-.78,2.46,2.46,0,0,1-.78-1.84V415.42a13,13,0,0,1,13-13A12.39,12.39,0,0,1,307,407.55a12.32,12.32,0,0,1,10.32-5.13,13,13,0,0,1,13,13v15.85a2.51,2.51,0,0,1-.75,1.84,2.55,2.55,0,0,1-1.87.78h-0.06a2.66,2.66,0,0,1-2.62-2.62V415.42a7.68,7.68,0,0,0-15.36,0v15.85a2.66,2.66,0,0,1-2.62,2.62h-0.06a2.55,2.55,0,0,1-1.87-.78,2.46,2.46,0,0,1-.78-1.84V415.42a7.67,7.67,0,0,0-15.33,0v15.85Z" transform="translate(0 -328.61)"/><path class="cls-1" d="M338.43,420.84a7.74,7.74,0,1,0,15.48,0V405.07a2.66,2.66,0,0,1,2.65-2.65h0.06a2.47,2.47,0,0,1,1.85.78,2.56,2.56,0,0,1,.78,1.87v15.76a13.07,13.07,0,0,1-26.14,0V405.07a2.55,2.55,0,0,1,.78-1.87,2.52,2.52,0,0,1,1.84-.78h0.09a2.52,2.52,0,0,1,1.84.78,2.55,2.55,0,0,1,.78,1.87v15.76Z" transform="translate(0 -328.61)"/><path class="cls-1" d="M367.39,431.27a2.46,2.46,0,0,1-.78,1.84,2.52,2.52,0,0,1-1.84.78h-0.09a2.52,2.52,0,0,1-1.84-.78,2.46,2.46,0,0,1-.78-1.84V415.5a13.07,13.07,0,1,1,26.14,0v15.76a2.66,2.66,0,0,1-2.62,2.62h-0.06a2.55,2.55,0,0,1-1.87-.78,2.46,2.46,0,0,1-.78-1.84V415.5a7.74,7.74,0,1,0-15.48,0v15.76Z" transform="translate(0 -328.61)"/><path class="cls-1" d="M394.75,396.94a3.15,3.15,0,0,1-3.17-3.17,3,3,0,0,1,.92-2.22,3.06,3.06,0,0,1,2.25-.92,3,3,0,0,1,2.22.92,3,3,0,0,1,1,2.22A3.2,3.2,0,0,1,394.75,396.94Zm0,5.48a2.46,2.46,0,0,1,1.84.78,2.55,2.55,0,0,1,.78,1.87v26.2a2.66,2.66,0,0,1-2.62,2.62h-0.06a2.55,2.55,0,0,1-1.87-.78,2.46,2.46,0,0,1-.78-1.84v-26.2a2.66,2.66,0,0,1,2.65-2.65h0.06Z" transform="translate(0 -328.61)"/><path class="cls-1" d="M420.94,403.17a2.4,2.4,0,0,1,1.84,2.51v0.14a2.47,2.47,0,0,1-1.07,2.1,2.5,2.5,0,0,1-2.36.4,9.8,9.8,0,0,0-3.17-.52,10.42,10.42,0,1,0,0,20.84,10.31,10.31,0,0,0,3.17-.49,2.54,2.54,0,0,1,2.36.37,2.5,2.5,0,0,1,1.07,2.13,2.43,2.43,0,0,1-1.84,2.51,15.85,15.85,0,0,1-4.75.72A15.74,15.74,0,1,1,420.94,403.17Z" transform="translate(0 -328.61)"/><path class="cls-1" d="M451.59,407a15.16,15.16,0,0,1,4.61,11.13v13.11a2.46,2.46,0,0,1-.78,1.84,2.52,2.52,0,0,1-1.84.78H453.5a2.52,2.52,0,0,1-1.84-.78,2.46,2.46,0,0,1-.78-1.84v-1.33A15.73,15.73,0,1,1,451.59,407Zm-18.5,3.78a10.42,10.42,0,1,0,14.73,0A10.4,10.4,0,0,0,433.09,410.81Z" transform="translate(0 -328.61)"/><path class="cls-1" d="M483.85,390.6a21.64,21.64,0,0,1,0,43.29H479.5a7.28,7.28,0,0,1-7.26-7.26V397.87a7.23,7.23,0,0,1,7.26-7.26h4.35Zm-6.28,36a1.87,1.87,0,0,0,1.93,1.93h4.35a16.33,16.33,0,1,0,0-32.65H479.5a1.89,1.89,0,0,0-1.38.58,1.94,1.94,0,0,0-.55,1.38v28.76Z" transform="translate(0 -328.61)"/><path class="cls-1" d="M510.9,396.94a3.15,3.15,0,0,1-3.17-3.17,3,3,0,0,1,.92-2.22,3.06,3.06,0,0,1,2.25-.92,3,3,0,0,1,2.22.92,3,3,0,0,1,1,2.22A3.2,3.2,0,0,1,510.9,396.94Zm0,5.48a2.46,2.46,0,0,1,1.84.78,2.55,2.55,0,0,1,.78,1.87v26.2a2.66,2.66,0,0,1-2.62,2.62h-0.06a2.55,2.55,0,0,1-1.87-.78,2.46,2.46,0,0,1-.78-1.84v-26.2a2.66,2.66,0,0,1,2.65-2.65h0.06Z" transform="translate(0 -328.61)"/><path class="cls-1" d="M532.33,440.41a10,10,0,0,0,7.12-3.06,9.86,9.86,0,0,0,3.29-7.35v-0.06a15.71,15.71,0,1,1,5.33-11.85V430a15,15,0,0,1-5,11.12,15.16,15.16,0,0,1-10.78,4.61q-9.25,0-13.83-7.15a2.64,2.64,0,0,1,1.33-3.92l0.09,0a2.44,2.44,0,0,1,3.08,1Q526.11,440.41,532.33,440.41ZM542.74,418a10.43,10.43,0,0,0-10.4-10.23,10.41,10.41,0,1,0,10.4,10.4V418Z" transform="translate(0 -328.61)"/><path class="cls-1" d="M554.63,396.94a3.15,3.15,0,0,1-3.17-3.17,3,3,0,0,1,.92-2.22,3.06,3.06,0,0,1,2.25-.92,3,3,0,0,1,2.22.92,3,3,0,0,1,1,2.22A3.2,3.2,0,0,1,554.63,396.94Zm0,5.48a2.46,2.46,0,0,1,1.84.78,2.55,2.55,0,0,1,.78,1.87v26.2a2.66,2.66,0,0,1-2.62,2.62H554.6a2.55,2.55,0,0,1-1.87-.78,2.46,2.46,0,0,1-.78-1.84v-26.2a2.66,2.66,0,0,1,2.65-2.65h0.06Z" transform="translate(0 -328.61)"/><path class="cls-1" d="M563.9,390.6a2.61,2.61,0,0,1,2.62,2.62v9.19h5.19a2.52,2.52,0,0,1,1.84.78,2.55,2.55,0,0,1,.78,1.87v0.06a2.46,2.46,0,0,1-.78,1.84,2.52,2.52,0,0,1-1.84.78h-5.19v18a2.75,2.75,0,0,0,.84,2,2.78,2.78,0,0,0,2,.84h2.31a2.52,2.52,0,0,1,1.84.78,2.55,2.55,0,0,1,.78,1.87v0.06a2.46,2.46,0,0,1-.78,1.84,2.52,2.52,0,0,1-1.84.78H569.4a8.17,8.17,0,0,1-8.21-8.18V393.23a2.61,2.61,0,0,1,2.62-2.62h0.09Z" transform="translate(0 -328.61)"/><path class="cls-1" d="M602.28,407a15.16,15.16,0,0,1,4.61,11.13v13.11a2.46,2.46,0,0,1-.78,1.84,2.52,2.52,0,0,1-1.84.78h-0.09a2.52,2.52,0,0,1-1.84-.78,2.46,2.46,0,0,1-.78-1.84v-1.33A15.73,15.73,0,1,1,602.28,407Zm-18.5,3.78a10.42,10.42,0,1,0,14.73,0A10.4,10.4,0,0,0,583.77,410.81Z" transform="translate(0 -328.61)"/><path class="cls-1" d="M613.56,390.6a2.61,2.61,0,0,1,2.62,2.62v38a2.46,2.46,0,0,1-.78,1.84,2.52,2.52,0,0,1-1.84.78h-0.09a2.52,2.52,0,0,1-1.84-.78,2.46,2.46,0,0,1-.78-1.84v-38a2.61,2.61,0,0,1,2.62-2.62h0.09Z" transform="translate(0 -328.61)"/><path class="cls-1" d="M350.95,455.37a13.34,13.34,0,0,0-4.51-4.12,12,12,0,0,0-5.68-1.32,11.43,11.43,0,0,0-8.55,3.71,12.3,12.3,0,0,0-3.55,8.81,12.81,12.81,0,0,0,3.53,9.16,11.37,11.37,0,0,0,8.57,3.73,12.06,12.06,0,0,0,5.62-1.3,12.39,12.39,0,0,0,4.36-3.87h3.5a15.07,15.07,0,0,1-5.52,5.92,15.62,15.62,0,0,1-18.78-2.42,15.45,15.45,0,0,1-4.42-11.26,15.16,15.16,0,0,1,1.19-6,15.62,15.62,0,0,1,3.5-5.08,14.69,14.69,0,0,1,4.81-3.24,15.81,15.81,0,0,1,13.81,1.08,15.35,15.35,0,0,1,5.65,6.18h-3.54Z" transform="translate(0 -328.61)"/><path class="cls-1" d="M355,466.28a11.84,11.84,0,0,1,3.42-8.52,10.87,10.87,0,0,1,8.09-3.54A11.86,11.86,0,0,1,378.32,466a12.11,12.11,0,0,1-3.4,8.65,10.93,10.93,0,0,1-8.23,3.58,11.16,11.16,0,0,1-8.33-3.51A11.67,11.67,0,0,1,355,466.28Zm3,0a9.2,9.2,0,0,0,2.49,6.56,8.17,8.17,0,0,0,6.2,2.65,8,8,0,0,0,6.11-2.65,9.3,9.3,0,0,0,2.47-6.6,9.09,9.09,0,0,0-2.5-6.6,8.46,8.46,0,0,0-6.35-2.58,7.85,7.85,0,0,0-5.94,2.66A9.25,9.25,0,0,0,358,466.24Z" transform="translate(0 -328.61)"/><path class="cls-1" d="M379.63,454.94h2.82v2.57a8.38,8.38,0,0,1,3.1-2.29,11.19,11.19,0,0,1,8.46.19,7.4,7.4,0,0,1,3.08,2.66,8.37,8.37,0,0,1,1.12,2.85,25.63,25.63,0,0,1,.34,4.83v11.84h-2.86V464.9q0-4-1.53-5.83t-4.91-1.81a7.3,7.3,0,0,0-3.47.79,5.87,5.87,0,0,0-2.36,2.27,6.52,6.52,0,0,0-.75,2.11,26.61,26.61,0,0,0-.22,4.13v11h-2.82V454.94Z" transform="translate(0 -328.61)"/><path class="cls-1" d="M399.61,470.46h3v0.08a5.14,5.14,0,0,0,1.21,3.51,3.83,3.83,0,0,0,3,1.39,4,4,0,0,0,2.84-1.07,3.55,3.55,0,0,0,1.13-2.7,3.74,3.74,0,0,0-.9-2.61,8.32,8.32,0,0,0-3.24-1.85q-3.77-1.34-4.92-2.74a5.71,5.71,0,0,1-1.15-3.75,6,6,0,0,1,1.92-4.51,6.48,6.48,0,0,1,4.66-1.85,6.37,6.37,0,0,1,4.61,1.65,6.48,6.48,0,0,1,1.83,4.59H410.5a3.64,3.64,0,0,0-1-2.49,3.45,3.45,0,0,0-2.5-.89,3.2,3.2,0,0,0-2.37,1,3.25,3.25,0,0,0-.95,2.38,3.39,3.39,0,0,0,.39,1.7,3.59,3.59,0,0,0,1.3,1.25,10.28,10.28,0,0,0,2.4,1q1.57,0.47,2.11.7a6.11,6.11,0,0,1,4.12,6.24,6.35,6.35,0,0,1-2,4.84,7.25,7.25,0,0,1-5.17,1.92,6.66,6.66,0,0,1-5.13-2.09A8.34,8.34,0,0,1,399.61,470.46Z" transform="translate(0 -328.61)"/><path class="cls-1" d="M415.27,454.94h2.86v12q0,4.63,1.5,6.56t4.94,1.92a7.18,7.18,0,0,0,3.44-.79,6.13,6.13,0,0,0,2.39-2.3,6.54,6.54,0,0,0,.74-2.09,26.16,26.16,0,0,0,.23-4.19V454.94h2.9v22.65h-2.9v-2.45a8,8,0,0,1-2.94,2.33,9.67,9.67,0,0,1-3.93.72q-4.9,0-7.06-2.65t-2.16-8.78V454.94Z" transform="translate(0 -328.61)"/><path class="cls-1" d="M436.81,477.59v-30h2.9v30h-2.9Z" transform="translate(0 -328.61)"/><path class="cls-1" d="M444.28,477.59V457.86H440v-2.92h4.3v-7.33h2.9v7.33h4.3v2.92h-4.3v19.72h-2.9Z" transform="translate(0 -328.61)"/><path class="cls-1" d="M450.47,466.28a11.84,11.84,0,0,1,3.42-8.52,10.87,10.87,0,0,1,8.09-3.54A11.86,11.86,0,0,1,473.83,466a12.11,12.11,0,0,1-3.4,8.65,10.93,10.93,0,0,1-8.23,3.58,11.16,11.16,0,0,1-8.33-3.51A11.67,11.67,0,0,1,450.47,466.28Zm3,0A9.2,9.2,0,0,0,456,472.8a8.17,8.17,0,0,0,6.2,2.65,8,8,0,0,0,6.11-2.65,9.3,9.3,0,0,0,2.47-6.6,9.09,9.09,0,0,0-2.5-6.6,8.46,8.46,0,0,0-6.35-2.58,7.85,7.85,0,0,0-5.94,2.66A9.25,9.25,0,0,0,453.52,466.24Z" transform="translate(0 -328.61)"/><path class="cls-1" d="M478,477.59H475.1V454.94h2.74v2.61a7.25,7.25,0,0,1,2.34-2.2,6.34,6.34,0,0,1,3-.74l0,3.15a5.6,5.6,0,0,0-3.92,1.64,6.93,6.93,0,0,0-1.18,4.52v13.67Z" transform="translate(0 -328.61)"/><path class="cls-1" d="M486.52,452.29h-2.9v-4.67h2.9v4.67Zm-2.9,25.3V454.94h2.9v22.65h-2.9Z" transform="translate(0 -328.61)"/><path class="cls-1" d="M508.23,474a9.24,9.24,0,0,1-3.67,3.07,11.39,11.39,0,0,1-5,1.11,11.1,11.1,0,0,1-8.3-3.41,12.35,12.35,0,0,1,.07-16.91,11.44,11.44,0,0,1,8.47-3.42,10.84,10.84,0,0,1,4.8,1.06,9.58,9.58,0,0,1,3.62,3.06v-3.62h2.84v22.65h-2.84V474Zm0-7.89a8.8,8.8,0,0,0-2.57-6.29,8,8,0,0,0-5.93-2.69,8.27,8.27,0,0,0-6.21,2.69,9.28,9.28,0,0,0-2.56,6.66,8.78,8.78,0,0,0,2.55,6.39,8.28,8.28,0,0,0,6.14,2.6,8,8,0,0,0,6-2.75A9.35,9.35,0,0,0,508.23,466.12Z" transform="translate(0 -328.61)"/><g class="cls-2"><path class="cls-1" d="M87.29,329.5h28.85Q156,336,172.95,352.55A261.81,261.81,0,0,0,196,369.8q14,13.23,14,18.89l-1.63.89Q200.9,378.28,191.09,374q-3.28-5.5-19.78-18.14-32.57-23-71.68-23v-0.89q-33,4.76-33,9.07Q45.35,346,23.05,373.07q-21.42,38.22-21.42,51H0v-9.82q5.94-29,28.85-54.43Q65.28,330.54,87.29,329.5Zm-29.59,0h8.93v1.64Q54.27,333.51,33.76,350q-3.12,0-8.18,10.71-17.7,17.1-23.94,32.86H0v-4.9Q0.89,378,28,350l0.89-1.64-1.63-.89Q7.88,361.77,1.64,376.34H0v-7.43l8.18-9.82q13.08-14,24.68-14,10-10,15.76-10Q48.63,334.25,57.7,329.5Zm-46.1,0h4v0.75Q1.79,347.35.89,347.49H0v-4.91Q0.89,340.06,11.6,329.5Zm-10,0H4.9v0.75q0,1.19-4,3.27L0,331.88v-0.74A1.64,1.64,0,0,1,1.64,329.5Zm90.56,7.29a123.82,123.82,0,0,1,13.24,1.64,47,47,0,0,1,7.43-.74q38.66,7,38.67,12.35,7.88,1.34,32.87,22.15,18.13,31.08,18.14,42.83-1.49,6.69-3.27,6.69l2.53,11.45q-2.53,4.17-2.53,6.55,0.75,4.46.74,5.05-4.31,4.61-6.54,23.79-3.86,6.4-12.34,35.4-11.46,34.35-14.87,36.28c-1.09,0-1.64-.84-1.64-2.52q28.85-82.83,28.85-98v-14q-4-9.81-4.9-23.79-1.64-.59-4.16-8.33h-0.75v1.64L186,408.46h-0.74q-3-1.19-9.07-21.41,0-8.33-26.32-26.32-34.94-11.6-47-11.6h-2.38q-27.36,0-48.63,18.14h4.16q22.16-10.56,30.34-13.08a44.72,44.72,0,0,1,5.06-.89q53.69,4.91,60.08,14,14.72,5.36,33.76,51.16,2.08,0,4.16,18.89A140.61,140.61,0,0,0,184.4,462q-15.62,52.5-24.69,78.22h-3.27v-0.89q9.07-23.49,14.87-54.28,3.27-5.5,10.71-38.67V428.24q0-15.18-19.78-47.74-29-22.31-60.08-22.31h-5.8q-15.16,0-47.73,16.51Q27.21,393,27.21,401.92L7.43,464.53q-5.65,7.29-6.54,7.29L0,470.18V467.8q0-1.19,7.43-14.87,13.09-55.32,27.21-73.31a179.26,179.26,0,0,0,22.16-20.52Q77,345.86,90.56,345.86h5.8a124.7,124.7,0,0,1,56.81,13.23q2.23,0,18.15,14,2.22,0,19.78,25.58,4,18.89,6.54,18.89l0.74-4.17v-1.64q-3-12.94-17.25-34.5-6.7-12-23.05-19.78-23-14.86-53.53-14.87,0-.74-6.54-0.74-28,0-51.9,20.52,0,1.33-14,13.24-11.9,12.79-21.42,46.1Q5.8,446.39,1.64,455.45H0V450.4q18.14-73.16,25.58-73.16,35.24-37,52.65-37A45,45,0,0,1,92.2,336.78Zm-1.63,24.69v0.89q-3.28,3.87-24.68,12.34Q28,397.61,28,444.75q0,13.09-8.18,29.59Q14.87,485.94.89,497.39L0,495.76v-0.89q20.52-23.5,25.58-50.12-0.89-8.33-.89-12.34,0-31.68,25.58-53.53Q81.49,361.47,90.56,361.47Zm14.87,1.78q28.25,0,46.84,14.72,11.75,6.84,23,37.92,2.53,7.59,2.53,11.45a30.45,30.45,0,0,0-1.64,7.43q0,5.8.74,18.15-3.42,0-4.91,18.14-4.91,4-7.43,28-9.07,35.1-14.73,41.19h-2.53v-0.89q14-39.26,14-48.48-9.07,11.6-12.34,31.23,0,7-6.55,16.51v1.63h-4.9v-1.63q5.35-5.5,7.43-18.89V518.8H144.1l-11.6,21.41h-2.38q4.91-10.55,4.9-11.6h-0.74q-10,8-10,11.6h-4.16v-1.63q7.44-10,23-23L155.55,490a37,37,0,0,0,10-21.42q5.8-11.45,5.8-35.39-2.83-.44-11.6-23-15.47-24.24-25.43-27.21a124.62,124.62,0,0,0-47-8.92q-33,14-41.19,32-7.44,13.68-7.43,37.18L30.49,473.6Q21.71,491.15.89,509H0v-4.17q32.86-29.74,32.87-65.88,1.93-23.64,6.69-28,0.44-7.29,9.07-16.5,11.9-13.83,32.12-23.05,6.39,0,16.35-8.18h8.33Zm-19,15.62c1.09,0,1.64.25,1.64,0.75l8.33-.75h5.8q9.67,0,24.69,4.91,22.6,9.37,34.5,40.3,4.17,13.38,4.17,20.67v4.91q0,30.78-51.9,90.56H112a1.44,1.44,0,0,1-1.63-1.63Q143.2,499.47,145,489.21q6.7-8.48,15.62-36.28V450.4a6.24,6.24,0,0,0-.89-3.27q0.89-1.64,1.63-7.44-9.52-36-25.42-45.21-8.93-7.73-32.12-11.6H94.73q-12,0-27.21,12.34-3.86.59-7.44,9.07Q51.9,411.59,47,438.06q0,45.05-46.1,80L0,516.28v-1.63q25.13-19.93,30.49-35.39,13.08-19.19,13.08-50.12,0-9.66,10-23.19,0-7.59,22.16-22.16A31.62,31.62,0,0,1,86.4,378.87Zm13.24,7.44q19.93,2.68,24.68,7.28,7.44,1.49,20.67,15.77,10.56,21.26,10.56,36.14l0.89,10q-3.57,0-7.44,16.36-1.78,0-4,10-7.43,10-15.76,28.85-1.78,0-23.79,29.59h-4.16v-0.89q26.47-33,39.56-62.46,3.27-6.25,9.07-32.12v-5.8q0-14.72-10.71-28.85-1.19,0-10.7-9.07Q115,391.22,97.1,391.21q-12.78,0-23,9.82-8,0-16.36,31.38-5.06,36-10.71,48.48-23.05,33.31-47,47V524.6q36.28-32.27,36.28-37Q47,473.74,47,461.11q2.37-4,5.65-28l-0.74-4.9q7.73-24.84,28.85-38.67Q92.34,386.31,99.63,386.31Zm-6.54,8.92h2.38q17.85,0,37.93,14.87,10.7,16.5,10.7,22.31v0.74q0,28.41-17.25,60.08l-11.6,21.42a133.69,133.69,0,0,1-20.52,25.57H93.09a1.45,1.45,0,0,1-1.64-1.63q28.11-29.89,34.5-56.81,13.23-29.89,13.23-47v-4.9q-10.41-21.41-18.14-21.42-4.46-4.16-17.25-6.54c0-.79-0.85-1.64-2.53-2.53q-14.88,0-23,9.07-15.62,11.75-15.62,46.1-4.61,29.14-14,39.55Q10.11,535.31.89,538.58L0,536.95v-0.89a76.4,76.4,0,0,1,18.89-15.61L46.1,490.85a80.77,80.77,0,0,0,8.18-19.78h1.79Q61.71,415,67.51,415,74.05,401.32,93.09,395.23Zm-74.2,37.92h0.89q2.38,0.6,2.38,6.55v1.79q0,8.92-13.08,35.39-7,9.07-8.18,9.07H0v-5.05Q18.88,460.07,18.89,433.15Zm19-103.65h7.43v0.75q-1.94,2.83-18.14,10A157.19,157.19,0,0,0,1.64,359.84H0.89v-4q2.23-7.73,32-23C32.87,332.37,34.55,331.28,37.92,329.5ZM98,402.66q3.27,1.34,3.27,2.53-26.32,12-26.32,21.42-2.68,0-6.54,42.83a79.48,79.48,0,0,0-5.8,18.88L45.36,509.73,14,540.22H9.82a1.44,1.44,0,0,1-1.63-1.63q7.58-3.12,24.68-23,14-10.11,20.67-22.31,11.15-18,12.34-32.86a6,6,0,0,1-.9-2.53Q70,419.76,77.33,415.9,89.22,402.66,98,402.66ZM24.69,329.5H28v0.75q-8.78,9.07-12.34,9.07L14,336.78Q19.93,329.5,24.69,329.5Zm84.76,78.22q24.83,10.26,24.84,27.06,0,20.08-14.13,46.1,0,15.31-24.69,48.63l-14,10.71H78.22v-0.89q29.29-23.8,35.39-46.84a49.77,49.77,0,0,0,.89-4.91q-3.42,2.24-26.47,38.67-6.84,5.21-21.41,13.09a0.73,0.73,0,0,1-.74.89H65a1.44,1.44,0,0,1-1.63-1.63q1.93-4.16,8.33-9.07l3.27,1.64q23.2-19.93,32.87-43.57,7.43-3.41,11.6-14.87l9.81-36.28q-4-18-10.71-18,0-2.82-11.45-5.8-11.9,0-23.94,14-4,6.54-7.44,49.36-7.44,27.52-26.32,40.3Q34.2,530.11,28.85,540.22H23.05a1.44,1.44,0,0,1-1.64-1.63q14.13-10.7,20.52-21.42,15.17-9.51,27.21-32.11a473.53,473.53,0,0,0,7.44-52.65q8.92-19.77,18.14-19.78Q105.28,407.72,109.45,407.72Zm-0.74,9.82q9.66,0,14.87,14.87a8.47,8.47,0,0,1,.74,4q-4.6,19-8.18,23.94,0,16.81-19.78,40.3a84.29,84.29,0,0,1-17.25,20.67V519.7A143.21,143.21,0,0,0,88,481.77q2.53-5.94,2.53-23v-11.6q1.33-21.41,14-21.42,5.65,0,11.6,7.43v4.17a1.44,1.44,0,0,1-1.63,1.63q-1.19,0-5.06-8.18a49.27,49.27,0,0,1-4.91-.89q-9.81,0-9.82,20.52c-0.59,0-.89,2.78-0.89,8.33v22.16l-1.64,2.53V490q0,2.68-2.38,9.07l1.63,0.89H92.2q18.14-26.76,18.15-30.48a73.28,73.28,0,0,0,.74-9.07,6.79,6.79,0,0,0-.74-2.53,133.31,133.31,0,0,1,9.07-20.52q0-3.72.74-4.91-8-10.71-15.61-10.71-14,0-17.25,18.89Q81.2,523.72,70,523.71q-8.47,12.35-14,16.51H52.64v-0.89q23.95-26.77,23.94-41v-0.89H75.69q-17.54,35.24-24.68,37,0,0.6-6.55,5.8h-5.8v-2.52q14.42-5.36,21.41-18,3.42-15.16,17.25-28.1,5.8-30.48,5.8-46.1v-7.44q0-8.93,13.23-18.89A84.87,84.87,0,0,1,108.71,417.54Zm-51.9,97.1v1.63q-9.52,16.51-18.14,16.51Q38.67,530.11,56.81,514.64ZM94.73,369.8l4,1.63,11.6-.89q18.14,2.08,41.19,17.4,15.61,21.86,15.61,32.87,4.76,6.54,5.8,6.54v-0.74q0-10.71-14.87-37A87.3,87.3,0,0,1,145.73,378q-23.36-10.71-37.92-10.71Q94.72,367.27,94.73,369.8Zm11.45,63.35q1.19,0,4.17,4.17a1.45,1.45,0,0,1-1.64,1.63,1.44,1.44,0,0,0-1.64-1.63h-2.53q-2.08,11.45-4,11.45,0,11.75,4.91,18.14a16.71,16.71,0,0,1-5.8,13.24H98.74a186.12,186.12,0,0,1-2.38-20.67Q98,456.35,98,450.4v-0.74a5.74,5.74,0,0,0-.9-3.27Q97.1,440.44,106.18,433.15ZM144.1,329.5h8.18q11,1.94,58.44,42.68v6.69H210q-16.36-19.33-28-23.05a85.82,85.82,0,0,0-37.92-24.68V329.5Zm7.44,123.43v2.52h0.74a5.93,5.93,0,0,1,.89-2.52h-1.63Zm14-123.43h5.8q14.87,13.09,29.59,24.69V350a74.68,74.68,0,0,0-22.16-18.89V329.5H182q7.43,0,28.7,28v4.91a1.44,1.44,0,0,1-1.63,1.64q-30.34-21.86-43.57-33.76V329.5Zm17.25,178.6h1.64V509q0,15.91-9.08,31.23h-1.64c-1.09,0-1.63-.84-1.63-2.52Q181.13,515.83,182.76,508.1Zm21.41-61h1.64l0.89,8.32v4.91q0,2.83-11.6,30.48-2.83,34.8-9.08,44.46,0,4.91-1.63,4.9h-1.64a1.44,1.44,0,0,1-1.63-1.63v-0.89q9.06-20.83,9.06-47.74,0-.89,7.44-19.78Q197.63,468.1,204.17,447.13Zm-1.63,33.76h2.53l0.74,4.17q-1.2,10.11-3.27,10.71l0.89,3.27a76.23,76.23,0,0,1-11.6,41.19h-1.64v-3.27q6-11.74,9.07-43.72Q199.27,491.15,202.54,480.89ZM193.47,329.5h4.91q7.28,9.82,10.71,9.82a9.58,9.58,0,0,1,1.63,4.91v4.16H210l-16.51-18.14V329.5Zm0,51h0.89q16.36,11.75,16.36,27.22v39.41h-1.63q-2.38-6.84-2.38-9.07a65.79,65.79,0,0,1,1.64-9.82q-1.64-5.8-2.53-5.8a89.79,89.79,0,0,0,1.63-15.62Q201.8,391.06,196,387.05q0-1.93-2.53-4.91v-1.64Zm15.62,88h1.63v41.19q0,15.47-9.81,30.48h-3.27v-0.89q10.7-18.44,10.71-45.21V474.34Zm-1.64-139.93q3.87,1.64,4.16,3.27v2.53h-2.53c-0.79,0-1.89-1.09-3.27-3.27v-0.89A1.64,1.64,0,0,1,207.45,328.61Zm3.27,205.81h0.89v3.28q0,1.18-2.53,2.52a1.44,1.44,0,0,1-1.64-1.63Q209.68,534.57,210.72,534.42Z" transform="translate(0 -328.61)"/></g><path class="cls-1" d="M99.36,334q6.77,1.77,6.77,8.63v0.29a9,9,0,0,1-11.18,8.63A55.72,55.72,0,0,0,81,349.76,53.48,53.48,0,0,0,41.78,366a55.65,55.65,0,0,0,0,78.67A53.64,53.64,0,0,0,81,460.9a58.75,58.75,0,0,0,13.93-1.67,8.49,8.49,0,0,1,7.65,1.57,8.39,8.39,0,0,1,3.53,7.06v0.2q0,7-6.77,8.73A75.31,75.31,0,0,1,81,479q-30.51,0-52.09-21.58T7.35,405.38q0-30.51,21.58-52.09T81,331.71A75.41,75.41,0,0,1,99.36,334Z" transform="translate(0 -328.61)"/><path class="cls-1" d="M134.59,392.88q30.51,0,52.09,21.58t21.58,52.09q0,30.51-21.58,52.09t-52.09,21.58H119.78A24.78,24.78,0,0,1,95.06,515.5V417.6a24.61,24.61,0,0,1,24.72-24.72h14.81ZM113.21,515.5a6.37,6.37,0,0,0,6.57,6.57h14.81a55.57,55.57,0,1,0,0-111.14H119.78a6.42,6.42,0,0,0-4.71,2,6.6,6.6,0,0,0-1.86,4.71V515.5Z" transform="translate(0 -328.61)"/></svg>